<svg version="1.1" id="Capa_1" xmlns="http://www.w3.org/2000/svg" xmlns:xlink="http://www.w3.org/1999/xlink" x="0px" y="0px" viewBox="0 0 512 512" style="enable-background:new 0 0 512 512;" xml:space="preserve">
<g>
	<g>
		<g>
			<g>
				<path style="fill:none;stroke:#000000;stroke-width:15;stroke-linecap:round;stroke-linejoin:round;stroke-miterlimit:10;" d="&#10;&#9;&#9;&#9;&#9;&#9;M328.66,233.481c-0.292-3.327-0.442-6.696-0.442-10.099c0-7.863,0.797-15.539,2.314-22.954"/>
			</g>
			<g>
				<path style="fill:none;stroke:#000000;stroke-width:15;stroke-linecap:round;stroke-linejoin:round;stroke-miterlimit:10;" d="&#10;&#9;&#9;&#9;&#9;&#9;M112.535,248.536c0,0,9.128,115.794,44.425,115.721"/>
			</g>
		</g>
		<path style="fill:none;stroke:#000000;stroke-width:15;stroke-linecap:round;stroke-linejoin:round;stroke-miterlimit:10;" d="&#10;&#9;&#9;&#9;M228.244,269.529c0,0-8.373,25.152,2.86,50.304"/>
		<path style="fill:none;stroke:#000000;stroke-width:15;stroke-linecap:round;stroke-linejoin:round;stroke-miterlimit:10;" d="&#10;&#9;&#9;&#9;M225.433,282.71c-0.005-0.008-0.01-0.015-0.015-0.022C225.547,282.693,225.692,282.698,225.433,282.71z"/>
	</g>
	<g>
		<path style="fill:none;stroke:#000000;stroke-width:15;stroke-linecap:round;stroke-linejoin:round;stroke-miterlimit:10;" d="&#10;&#9;&#9;&#9;M215.611,73.834c-29.31-10.393-31.792-11.189-56.058-18.991"/>
	</g>
	<path style="fill:none;stroke:#000000;stroke-width:15;stroke-linecap:round;stroke-linejoin:round;stroke-miterlimit:10;" d="&#10;&#9;&#9;M442.24,110.023l-0.128-0.536c-54.339,0-99.783,38.056-111.151,88.967c-57.092,1.319-99.206,37.746-105.528,84.218&#10;&#9;&#9;c-0.011,0.002-0.011,0.002-0.022,0.005c-2.889-4.644-6.275-8.89-10.2-12.644c-30.335-29.017-53.296-71.369-66.565-99.918&#10;&#9;&#9;c-5.456-11.739-8.937-24.295-10.379-37.159l-2.91-25.94c6.243,0.744,14.578-0.169,24.538-5.731&#10;&#9;&#9;c5.5-3.072,11.963-3.951,18.076-2.428l27.97,6.971c6.838,1.704,13.815-2.24,15.881-8.978l2.035-6.637&#10;&#9;&#9;c2.081-6.787-1.554-14.009-8.245-16.382c-0.242-0.086-0.466-0.165-0.704-0.25l10.131-19.913c2.318-4.556,2.024-10.002-0.784-14.273&#10;&#9;&#9;c-7.012-10.666-21.191-29.75-33.941-31.594C171.09,5.024,99.586,21.426,72.981,51.939c-1.553,1.781-2.361,4.093-2.361,6.456v52.071&#10;&#9;&#9;c-8.716,216.75,51.708,291.353,50.436,321.58c-1.087,25.824,15.256,45.001,46.968,37.539h0c2.736-0.644,5.586-1.487,8.549-2.54&#10;&#9;&#9;c20.362-5.541,71.895-13.262,115.426,0.387c71.951,22.56,107.553-15.064,150.241,37.067"/>
	<path style="fill:none;stroke:#000000;stroke-width:15;stroke-linecap:round;stroke-linejoin:round;stroke-miterlimit:10;" d="&#10;&#9;&#9;M177.067,60.501c0,0,4.773-6.991,11.025-12.42"/>
	<path style="fill:none;stroke:#000000;stroke-width:15;stroke-linecap:round;stroke-linejoin:round;stroke-miterlimit:10;" d="&#10;&#9;&#9;M135.357,107.017c0,0-17.012,0.28-17.012-18.641"/>
	<g>
		<path style="fill:none;stroke:#000000;stroke-width:15;stroke-linecap:round;stroke-linejoin:round;stroke-miterlimit:10;" d="&#10;&#9;&#9;&#9;M225.24,398.34c0,0,56.5,32.06,93.36-20.38"/>
		<path style="fill:none;stroke:#000000;stroke-width:15;stroke-linecap:round;stroke-linejoin:round;stroke-miterlimit:10;" d="&#10;&#9;&#9;&#9;M302.836,351.272c10.923,30.854,59.109,85.164,139.405,56.57"/>
	</g>
	<path style="fill:none;stroke:#000000;stroke-width:15;stroke-linecap:round;stroke-linejoin:round;stroke-miterlimit:10;" d="&#10;&#9;&#9;M352.548,282.673c0,0,20.446,24.967,55.069,27.813"/>
</g>
<g>
</g>
<g>
</g>
<g>
</g>
<g>
</g>
<g>
</g>
<g>
</g>
<g>
</g>
<g>
</g>
<g>
</g>
<g>
</g>
<g>
</g>
<g>
</g>
<g>
</g>
<g>
</g>
<g>
</g>
</svg>