<?xml version="1.0" encoding="UTF-8"?>
<svg xmlns="http://www.w3.org/2000/svg" xmlns:xlink="http://www.w3.org/1999/xlink" version="1.1" id="Capa_1" x="0px" y="0px" viewBox="0 0 512 512" style="enable-background:new 0 0 512 512;" xml:space="preserve" width="512" height="512">
<g>
	<path style="fill:none;stroke:#000000;stroke-width:15;stroke-linecap:round;stroke-linejoin:round;stroke-miterlimit:10;" d="&#10;&#9;&#9;M342.57,383.821v-61.14c0-4.19,1.38-8.28,4.01-11.54c19.16-23.75,27.92-49.32,32.7-71.09c16.13-0.19,30.39-1.43,42.94-3.36"/>
	<path style="fill:none;stroke:#000000;stroke-width:15;stroke-linecap:round;stroke-linejoin:round;stroke-miterlimit:10;" d="&#10;&#9;&#9;M229,125.4v25.32c-22.65,12.18-48.23,5.54-71.05,14.09c-3.02,1.13-6.36,0.97-9.29-0.39c-33.77-15.61-62.85-10.43-83.72,3.83&#10;&#9;&#9;c-2.56,1.75-5.98-0.3-5.59-3.37l2.73-21.45c2.1-16.57,12.03-31.12,26.68-39.13l8.5-4.64c0,0,22.93,5.51,37.38,0.16&#10;&#9;&#9;c3.46-1.28,5.4-4.97,4.62-8.57c-3.58-16.46-17.45-46.49-23.54-46c-6.89,0.55-52.83,14.22-61.29,27.47&#10;&#9;&#9;c-11.3,17.68-33.3,56.62-46.66,120.41c-0.91,4.32,0.52,8.83,3.79,11.8c11.85,10.78,46.17,34.22,121.16,35.12&#10;&#9;&#9;c4.78,21.77,13.54,47.34,32.7,71.09c2.63,3.26,4.01,7.35,4.01,11.54v61.14"/>
	<path style="fill:none;stroke:#000000;stroke-width:15;stroke-linecap:round;stroke-linejoin:round;stroke-miterlimit:10;" d="&#10;&#9;&#9;M283,125.4v25.32c22.65,12.18,48.23,5.54,71.05,14.09c3.02,1.13,6.36,0.97,9.29-0.39c33.77-15.61,62.85-10.43,83.72,3.83&#10;&#9;&#9;c2.56,1.75,5.98-0.3,5.59-3.37l-2.73-21.45c-2.1-16.57-12.03-31.12-26.68-39.13l-8.5-4.64c0,0-22.93,5.51-37.38,0.16&#10;&#9;&#9;c-3.46-1.28-5.4-4.97-4.62-8.57c3.58-16.46,17.45-46.49,23.54-46c6.89,0.55,52.83,14.22,61.29,27.47&#10;&#9;&#9;c11.3,17.68,33.3,56.62,46.66,120.41c0.91,4.32-0.52,8.83-3.79,11.8c-6.67,6.07-20.44,16.13-44.57,23.94"/>
	<path style="fill:none;stroke:#000000;stroke-width:15;stroke-linecap:round;stroke-linejoin:round;stroke-miterlimit:10;" d="&#10;&#9;&#9;M212.472,40.123c-3.208,6.25-4.743,13.469-4.038,21.036l3.978,42.672c1.222,13.114,12.228,23.141,25.398,23.141h36.379&#10;&#9;&#9;c13.171,0,24.176-10.027,25.398-23.141l3.978-42.672c2.097-22.492-15.601-41.916-38.191-41.916h-18.75&#10;&#9;&#9;c-2.324,0-4.596,0.206-6.799,0.599"/>
	<path style="fill:none;stroke:#000000;stroke-width:15;stroke-linecap:round;stroke-linejoin:round;stroke-miterlimit:10;" d="&#10;&#9;&#9;M80.967,235.179c18.794,3.594,41.839,5.629,69.881,4.666"/>
	<path style="fill:none;stroke:#000000;stroke-width:15;stroke-linecap:round;stroke-linejoin:round;stroke-miterlimit:10;" d="&#10;&#9;&#9;M361.152,239.846c17.596,0.604,33.225,0.027,47.071-1.374"/>
	<g>
		<path style="fill:none;stroke:#000000;stroke-width:15;stroke-linecap:round;stroke-linejoin:round;stroke-miterlimit:10;" d="&#10;&#9;&#9;&#9;M233.59,184.652c12.377,0,22.41,10.033,22.41,22.41v20.399"/>
		<path style="fill:none;stroke:#000000;stroke-width:15;stroke-linecap:round;stroke-linejoin:round;stroke-miterlimit:10;" d="&#10;&#9;&#9;&#9;M278.41,184.652c-12.377,0-22.41,10.033-22.41,22.41"/>
	</g>
	
		<line style="fill:none;stroke:#000000;stroke-width:15;stroke-linecap:round;stroke-linejoin:round;stroke-miterlimit:10;" x1="256" y1="308.247" x2="256" y2="347.284"/>
	<g>
		<path style="fill:none;stroke:#000000;stroke-width:15;stroke-linecap:round;stroke-linejoin:round;stroke-miterlimit:10;" d="&#10;&#9;&#9;&#9;M226.528,261.148c0,18.201-11.77,33.654-28.113,39.162"/>
		<path style="fill:none;stroke:#000000;stroke-width:15;stroke-linecap:round;stroke-linejoin:round;stroke-miterlimit:10;" d="&#10;&#9;&#9;&#9;M285.472,261.148c0,18.201,11.77,33.654,28.113,39.162"/>
	</g>
	<path style="fill:none;stroke:#000000;stroke-width:15;stroke-linecap:round;stroke-linejoin:round;stroke-miterlimit:10;" d="&#10;&#9;&#9;M242.824,492.756l2.199-22.135c0.843-5.41,5.502-9.398,10.977-9.398s10.133,3.988,10.977,9.398l2.199,22.135"/>
	
		<polyline style="fill:none;stroke:#000000;stroke-width:15;stroke-linecap:round;stroke-linejoin:round;stroke-miterlimit:10;" points="&#10;&#9;&#9;352.609,492.756 342.567,398.068 342.567,383.821 169.433,383.821 169.433,398.068 159.391,492.756 &#9;"/>
</g>















</svg>
