<?xml version="1.0" encoding="UTF-8"?>
<svg xmlns="http://www.w3.org/2000/svg" viewBox="0 0 64 64" width="512" height="512"><g id="Layer_8" data-name="Layer 8"><path d="M40,16h3.382l3-6h-3.6l-.811,3.241A1,1,0,0,1,41,14H37.754l-1.1,3.839,2.828-1.7A1,1,0,0,1,40,16Z"/><path d="M40,40a1,1,0,0,1-.515-.143l-2.828-1.7L37.754,42H41a1,1,0,0,1,.97.758L42.78,46h3.6l-3-6Z"/><path d="M51.6,27.8a1,1,0,0,1-1.2,0l-3.306-2.48-3.387,3.387A1,1,0,0,1,43,29H41.414L43.2,30.783l3.356-1.678A1,1,0,0,1,47.6,29.2L51,31.75l3-2.25V26Z"/><path d="M27,57a10.063,10.063,0,0,1-2-6,1.019,1.019,0,0,1,.008-.124l1.268-10.145a2.846,2.846,0,0,1-3.745-1.287l-2.52-4.993,1.785-.9,2.52,4.994a.877.877,0,0,0,1.409.145,14.635,14.635,0,0,0,2.18-3.693,7,7,0,0,1-.6-13.96A3.211,3.211,0,0,0,24.941,20V18a5.217,5.217,0,0,1,2.993.943A6.683,6.683,0,0,0,28,18.222a6.538,6.538,0,0,0-.335-2.065A12.94,12.94,0,0,1,27,12.06a5.517,5.517,0,0,1,.579-2.455l.737-1.475A15.976,15.976,0,0,0,29.941,2H24.22l.27,1.352A26.309,26.309,0,0,1,25,8.5a26.309,26.309,0,0,1-.51,5.148L23.98,16.2,22.02,15.8l.509-2.549A24.241,24.241,0,0,0,23,8.5a24.241,24.241,0,0,0-.471-4.755L22.18,2H15v.192a17.471,17.471,0,0,0,1.419,6.914A19.452,19.452,0,0,1,18,16.808v.841l.22-.274,1.56,1.25-.428.536A15.3,15.3,0,0,0,16.589,32.92l.9,3.151A65.255,65.255,0,0,1,20,54a1,1,0,0,1-.5.868l-6.132,3.5A4.77,4.77,0,0,1,11,59a1,1,0,0,0,0,2H26a2,2,0,0,0,1.6-3.2Z"/><circle cx="28" cy="28" r="5"/></g></svg>
