<?xml version="1.0" encoding="UTF-8"?>
<svg id="Layer_2" data-name="Layer 2" xmlns="http://www.w3.org/2000/svg" xmlns:xlink="http://www.w3.org/1999/xlink" viewBox="0 0 16.82 9.15">
  <defs>
    <style>
      .cls-1 {
        fill: url(#linear-gradient);
      }
    </style>
    <linearGradient id="linear-gradient" x1="0" y1="4.58" x2="16.82" y2="4.58" gradientUnits="userSpaceOnUse">
      <stop offset="0" stop-color="#752a6f"/>
      <stop offset=".15" stop-color="#623a7a"/>
      <stop offset=".73" stop-color="#2277a3"/>
      <stop offset="1" stop-color="#098fb4"/>
    </linearGradient>
  </defs>
  <g id="Layer_2-2" data-name="Layer 2">
    <path class="cls-1" d="M7.3,7.81c-.42.38-1.54,1.06-2.09,1.23C2.31,9.9-1.62,5.76.7,3.27c1.92-2.05,5.78.07,7.81.92.12.05.43.09.59.17,1.08-1.14,2.12-2.41,3.35-3.39,1.41-1.12,2.68-1.42,4.06-.05.19.19.32.39.31.66-.12.03-.12-.07-.18-.13-.33-.34-.47-.65-.98-.8-1.89-.57-3.1,1.08-4.21,2.32-.5.56-.95,1.16-1.47,1.7-.02.08.04.1.09.13.26.15.75.24,1.03.35.64.24,1.55.53,2.41.66.32.05.67.03.99.07.05,0,.21.02.2.11-.25.04-.56.1-.8.11-.96.04-2.1-.16-3.05-.35-.49-.1-.97-.25-1.46-.36-.39.5-.78,1-1.2,1.47-.04.05-.04.13-.05.14-.16.17-.67.69-.84.84ZM6.58,6.42c.42-.3.84-.55,1.25-.89.09-.07.38-.3.42-.36.05-.06.08-.05,0-.11-.85-.21-1.69-.48-2.54-.69-1.07-.27-2.95-.96-3.68.21-.39.63-.23,1.37.18,1.95.61.84,1.55,1.32,2.58.98.32-.11.58-.27.84-.42.37-.21.64-.45.95-.67Z"/>
  </g>
</svg>