<svg height="512" viewBox="0 0 32 32" width="512" xmlns="http://www.w3.org/2000/svg" fill="currentColor"><g id="Layer_2" data-name="Layer 2"><circle cx="16" cy="17" r="5"/><path d="m27 8h-2.764a.994.994 0 0 1 -.894-.553l-.895-1.789a2.983 2.983 0 0 0 -2.683-1.658h-7.528a2.983 2.983 0 0 0 -2.683 1.658l-.9 1.789a.994.994 0 0 1 -.889.553h-2.764a3 3 0 0 0 -3 3v14a3 3 0 0 0 3 3h22a3 3 0 0 0 3-3v-14a3 3 0 0 0 -3-3zm-11 16a7 7 0 1 1 7-7 7.008 7.008 0 0 1 -7 7zm10-11a1 1 0 1 1 1-1 1 1 0 0 1 -1 1z"/></g></svg>