<svg id="Layer_1" enable-background="new 0 0 576.505 319.926" height="512" viewBox="0 0 576.505 319.926" width="512" xmlns="http://www.w3.org/2000/svg"><g><circle cx="288.253" cy="102.927" r="22.5"/><path d="m36.654 13.263c0-1.221-.99-2.21-2.211-2.21s-2.211.99-2.211 2.21c0 1.221.99 2.211 2.211 2.211s2.211-.99 2.211-2.211z"/><path d="m104.675 13.263c0 1.221.99 2.211 2.211 2.211s2.211-.99 2.211-2.211-.99-2.21-2.211-2.21-2.211.989-2.211 2.21z"/><path d="m433.067 116.937c2.372 0 4.295-1.923 4.295-4.295 0-.85-.255-1.638-.681-2.305l34.51-33.65c1.395 1.014 3.103 1.62 4.95 1.62h4.695v3.568h3.411v227.439h-18.8v10.61h107.495v-10.61h-12.822v-181.893h-21.074v-100.895h5.637c5.41 0 10.084-3.286 12.141-7.958h19.681v-10.61h-19.681c-2.057-4.672-6.731-7.958-12.141-7.958h-77.684c-5.41 0-10.084 3.286-12.141 7.958h-333.21c-2.058-4.672-6.732-7.958-12.142-7.958h-77.684c-5.41 0-10.084 3.286-12.141 7.958h-19.681v10.611h19.681c2.057 4.672 6.731 7.958 12.141 7.958h5.637v100.895h-21.074v181.895h-12.821v10.61h107.495v-10.61h-18.8v-227.441h3.411v-3.568h4.695c1.847 0 3.555-.606 4.95-1.62l34.51 33.65c-.426.667-.681 1.454-.681 2.305 0 2.372 1.923 4.295 4.295 4.295.89 0 1.716-.271 2.402-.734l14.873 14.502-2.686 11.549c-.49 2.105.017 4.271 1.39 5.94 1.321 1.605 3.247 2.513 5.313 2.513.082 0 .164-.001.245-.004l7.13-.244c3.108-.107 5.771-2.298 6.477-5.327l.429-1.847c.28.1.566.188.862.258l44.969 10.61c.604.143 1.22.214 1.837.214.453 0 .906-.038 1.354-.115l33.172-5.697v50.903l-8.53 104.59c-.555 6.807 4.514 12.773 11.318 13.327 6.805.554 12.773-4.51 13.328-11.317l7.429-91.084h7.002l7.429 91.084c.555 6.807 6.523 11.872 13.328 11.317s11.873-6.52 11.318-13.327l-8.53-104.591v-50.902l33.172 5.697c.448.077.901.115 1.354.115.617 0 1.233-.071 1.837-.214l44.969-10.61c.296-.07.582-.158.862-.258l.43 1.847c.705 3.029 3.368 5.22 6.476 5.327l7.13.244c.082.003.164.004.246.004 2.067 0 3.993-.907 5.314-2.513 1.374-1.67 1.88-3.835 1.391-5.94l-2.686-11.55 14.873-14.502c.685.463 1.511.734 2.401.734zm42.442-43.934c-.271 0-.53-.045-.781-.109.12-.487.02-1.018-.356-1.404-.459-.471-1.144-.56-1.707-.295-.196-.411-.314-.865-.314-1.351 0-1.744 1.414-3.158 3.158-3.158s3.158 1.414 3.158 3.158-1.414 3.159-3.158 3.159zm19.348 8.873h3.411v-24.063h-3.411v-31.287h19.032v100.895h-12.737v181.895h-6.295zm39.873 45.545h-10.232v-100.895h10.232zm12.827-114.158c0 3.035-2.46 5.495-5.495 5.495s-5.495-2.46-5.495-5.495 2.46-5.495 5.495-5.495 5.495 2.46 5.495 5.495zm-77.937-5.495c3.035 0 5.495 2.46 5.495 5.495s-2.46 5.495-5.495 5.495-5.495-2.46-5.495-5.495 2.46-5.495 5.495-5.495zm-357.24 5.495c0 3.035-2.46 5.495-5.495 5.495s-5.495-2.46-5.495-5.495 2.46-5.495 5.495-5.495 5.495 2.46 5.495 5.495zm-83.431 0c0-3.035 2.46-5.495 5.495-5.495s5.495 2.46 5.495 5.495-2.46 5.495-5.495 5.495-5.495-2.46-5.495-5.495zm12.826 13.263h10.232v100.895h-10.232zm39.874 282.79h-6.295v-181.895h-12.737v-100.895h19.032v31.287h-3.411v24.063h3.411zm16.189-239.471c0-1.744 1.414-3.158 3.158-3.158s3.158 1.414 3.158 3.158c0 .485-.118.94-.314 1.351-.563-.266-1.249-.176-1.707.295-.376.385-.476.917-.356 1.404-.251.064-.51.109-.781.109-1.744-.001-3.158-1.415-3.158-3.159zm74.132 76.617-7.131.244c-.9.043-1.756-.353-2.332-1.052-.576-.701-.789-1.609-.583-2.493l2.292-9.857c.324-.042.64-.164.886-.416.579-.593.566-1.543-.026-2.121l-.22-.214 2.575-11.071c.205-.884.797-1.605 1.623-1.979.383-.174.79-.261 1.195-.261.468 0 .934.115 1.363.345l6.291 3.366c1.151.615 1.748 1.934 1.452 3.205l-1.011 4.35c-2.146.999-3.831 2.929-4.417 5.412-.59 2.5.069 4.998 1.565 6.854l-.802 3.451c-.298 1.273-1.416 2.192-2.72 2.237zm242.029-.808c-.576.7-1.418 1.078-2.333 1.052l-7.13-.244c-1.304-.045-2.422-.964-2.717-2.235l-.803-3.452c1.495-1.857 2.154-4.354 1.564-6.854-.586-2.482-2.271-4.413-4.417-5.411l-1.012-4.351c-.295-1.271.302-2.59 1.452-3.205l6.292-3.366c.799-.428 1.731-.459 2.558-.084.826.374 1.418 1.096 1.623 1.979l2.575 11.071-.22.214c-.593.578-.605 1.528-.026 2.121.246.252.562.375.886.416l2.292 9.856c.205.884-.008 1.792-.584 2.493zm-1.027-27.078c-.49-2.105-1.899-3.825-3.868-4.717-1.969-.893-4.192-.819-6.096.2l-6.292 3.366c-2.742 1.468-4.166 4.609-3.461 7.639l.639 2.749c-.312.036-.625.084-.938.158l-43.383 10.236-40.381-6.936c-.201-.034-.4-.053-.6-.072-.335-.044-.675-.075-1.022-.075h-38.635c-.348 0-.689.031-1.025.076-.199.019-.397.037-.597.071l-40.381 6.936-43.383-10.236c-.313-.074-.626-.122-.939-.158l.639-2.749c.705-3.029-.718-6.171-3.461-7.639l-6.291-3.366c-1.906-1.019-4.126-1.092-6.097-.2-1.969.892-3.378 2.611-3.868 4.717l-2.026 8.713-13.925-13.578c.089-.344.15-.698.15-1.069 0-2.372-1.923-4.295-4.295-4.295-.409 0-.796.075-1.17.182l-34.866-33.998c.9-1.344 1.428-2.956 1.428-4.686 0-4.655-3.808-8.463-8.463-8.463h-4.695v-3.568h-3.411v-31.288h17.247c5.41 0 10.084-3.286 12.141-7.958h333.21c2.057 4.672 6.731 7.958 12.141 7.958h17.247v31.287h-3.411v3.568h-4.695c-4.655 0-8.463 3.809-8.463 8.463 0 1.73.528 3.342 1.428 4.686l-34.868 33.999c-.374-.107-.762-.182-1.17-.182-2.372 0-4.295 1.923-4.295 4.295 0 .371.062.725.15 1.069l-13.925 13.578z"/><path d="m539.851 13.263c0 1.221.99 2.211 2.211 2.211s2.211-.99 2.211-2.211-.99-2.21-2.211-2.21-2.211.989-2.211 2.21z"/><path d="m469.62 15.474c1.221 0 2.211-.99 2.211-2.211s-.99-2.21-2.211-2.21-2.211.99-2.211 2.21c0 1.221.99 2.211 2.211 2.211z"/></g></svg>