<svg id="_x32_8.women_x5F_hip" enable-background="new 0 0 195 195" height="512" viewBox="0 0 195 195" width="512" xmlns="http://www.w3.org/2000/svg"><g><g><path d="m91 173.5h7.5-.1l29.7-.1.1-2c.4-15.6 2.8-26.8 7-32.4 2.3-3 5.6-7.6 8.4-11.5-37.9 24-49.3 39.6-52.6 46z"/></g><g><path d="m139.1 53.2c-12.8-11.4-14.3-29.6-14.3-29.8l-.1-1.9-67.5.7-.1 1.8c0 .9-.9 21.7 4.5 43.9.1 1.5 1.6 22.1-17.3 65.8l-.1.3c-.3 1.1-7 27.1-7.5 37.3l-.1 2.1 49.9.1c2.8-6.6 14.5-25.1 63-54.4 5.4-7.5 8.3-15.5 8.8-23.8 1.2-22.6-15.8-39-19.2-42.1z"/></g></g></svg>